# xmcd
#
# Track frame offsets:
#	150
#	17816
#	38811
#	56604
#	75184
#	91647
#	110603
#	128753
#	151778
#
# Disc length: 2295 seconds
#
# Revision: 1
# Processed by: cddbd v1.5.2PL0 Copyright (c) Steve Scherf et al.
# Submitted via: audiograbber 1.83.01
#
DISCID=5a08f509
DTITLE=Mount Rushmore Safari - Elba
DYEAR=2014
DGENRE=Rock
TTITLE0=House on fire
TTITLE1=Promised you the world
TTITLE2=Wanted you to die
TTITLE3=Nothing's gonna stop
TTITLE4=Up the hill
TTITLE5=Elba
TTITLE6=John Wayne
TTITLE7=Butterfly
TTITLE8=Nowhere Line
EXTD=
EXTT0=
EXTT1=
EXTT2=
EXTT3=
EXTT4=
EXTT5=
EXTT6=
EXTT7=
EXTT8=
PLAYORDER=
